<?xml version="1.0" standalone="no"?>
<!DOCTYPE svg PUBLIC "-//W3C//DTD SVG 20010904//EN"
 "http://www.w3.org/TR/2001/REC-SVG-20010904/DTD/svg10.dtd">
<svg version="1.0" xmlns="http://www.w3.org/2000/svg"
 width="1354.000000pt" height="1354.000000pt" viewBox="0 0 1354.000000 1354.000000"
 preserveAspectRatio="xMidYMid meet">
<metadata>
Created by potrace 1.11, written by Peter Selinger 2001-2013
</metadata>
<g transform="translate(0.000000,1354.000000) scale(0.100000,-0.100000)"
fill="#000000" stroke="none">
<path d="M2639 13533 c-4 -41 -1 -3645 4 -3649 3 -4 1162 -7 2576 -8 1413 0
2572 -4 2575 -7 5 -5 -67 -477 -104 -679 -5 -30 -12 -73 -16 -95 -3 -22 -16
-105 -29 -185 -14 -80 -27 -162 -31 -184 -3 -21 -7 -48 -10 -59 -2 -12 -6 -39
-9 -62 -4 -22 -21 -132 -40 -245 -18 -113 -36 -221 -39 -240 -7 -43 -45 -276
-51 -310 -2 -14 -11 -72 -20 -130 -9 -58 -18 -117 -20 -132 -5 -27 -10 -56
-20 -115 -15 -95 -67 -414 -71 -443 -3 -19 -7 -46 -10 -60 -5 -27 -10 -55 -18
-110 -3 -19 -8 -46 -10 -60 -3 -14 -7 -41 -10 -60 -3 -19 -14 -89 -25 -155
-11 -66 -23 -138 -26 -160 -6 -42 -9 -56 -19 -115 -15 -90 -32 -192 -41 -260
-4 -24 -8 -47 -10 -50 -1 -3 -6 -27 -9 -55 -4 -27 -8 -61 -11 -75 -3 -14 -7
-41 -10 -60 -3 -19 -10 -60 -15 -90 -18 -102 -58 -354 -66 -410 -3 -19 -7 -46
-10 -60 -6 -34 -10 -55 -34 -200 -11 -69 -23 -138 -26 -155 -3 -18 -2 -26 4
-20 9 10 411 723 465 825 16 30 33 60 37 65 7 8 92 159 280 495 109 194 247
439 405 720 98 173 192 340 208 370 16 30 33 60 37 65 4 6 18 30 32 55 14 25
65 117 115 205 49 88 103 183 118 210 15 28 44 79 64 114 20 34 54 96 76 137
23 40 46 79 53 86 7 7 12 15 12 19 0 4 58 110 128 236 146 260 143 253 286
508 58 105 111 197 116 205 6 8 13 22 17 30 4 8 19 35 33 60 15 25 61 106 102
180 42 74 86 153 98 175 13 22 34 59 46 82 13 23 62 111 110 195 47 84 106
188 130 231 24 42 64 112 88 155 23 42 56 100 72 127 15 28 38 68 50 90 12 22
59 105 104 185 45 80 94 165 108 190 14 25 53 95 87 155 34 61 73 130 87 155
14 25 76 135 138 245 62 110 124 220 138 245 14 25 75 133 135 240 61 107 124
220 140 250 16 30 33 60 37 65 4 6 18 30 32 55 14 25 118 212 233 415 114 204
217 386 227 405 11 19 33 58 49 85 16 28 34 59 40 70 5 11 15 29 22 40 7 11
41 72 76 135 35 63 66 118 68 123 2 4 -2077 7 -4621 7 -2544 0 -4626 -3 -4627
-7z"/>
<path d="M6430 8498 c-69 -122 -137 -242 -151 -267 -14 -25 -46 -82 -71 -126
-91 -164 -238 -424 -318 -565 -45 -80 -115 -203 -155 -275 -40 -71 -119 -213
-177 -315 -58 -102 -116 -205 -130 -230 -74 -132 -263 -468 -273 -485 -7 -11
-26 -45 -43 -75 -16 -30 -159 -284 -317 -565 -158 -280 -341 -607 -407 -725
-67 -118 -124 -219 -128 -225 -4 -5 -22 -37 -40 -70 -18 -33 -161 -287 -318
-565 -157 -278 -296 -525 -310 -550 -13 -25 -41 -74 -62 -110 -20 -36 -51 -90
-67 -120 -17 -30 -98 -174 -180 -320 -82 -146 -203 -359 -268 -475 -65 -115
-155 -275 -200 -355 -45 -80 -117 -208 -160 -285 -43 -77 -105 -187 -138 -245
-33 -58 -71 -125 -84 -150 -14 -25 -33 -58 -43 -75 -10 -16 -29 -50 -42 -75
-14 -25 -96 -171 -183 -325 -87 -154 -166 -296 -177 -315 -10 -19 -23 -42 -28
-50 -20 -31 -302 -534 -306 -545 -4 -9 1072 -12 4621 -12 l4625 0 1 31 c1 41
1 3597 0 3616 -1 13 -295 15 -2581 15 -2069 0 -2580 2 -2580 13 0 10 9 71 36
237 2 17 9 55 14 85 13 76 16 97 40 245 31 193 35 214 44 260 2 11 7 45 11 75
4 30 9 64 11 75 3 11 7 36 10 55 5 34 9 57 18 110 3 14 14 84 25 155 21 129
26 160 36 223 3 17 8 47 10 65 3 17 7 43 10 57 2 13 7 42 10 65 3 22 8 47 10
55 3 8 7 33 10 55 2 22 7 51 10 65 2 13 7 42 10 65 3 22 8 51 10 65 3 14 7 41
10 60 3 19 16 98 30 175 23 135 82 493 90 545 2 14 11 69 20 123 9 54 18 110
20 125 2 15 22 140 45 277 22 138 43 266 46 285 6 42 11 67 24 140 5 30 12 73
15 95 4 22 20 123 37 225 16 102 32 199 34 215 2 17 19 125 38 240 30 181 67
404 82 498 2 15 3 27 1 27 -2 0 -59 -100 -127 -222z"/>
</g>
</svg>
